<svg width="40" height="35" viewBox="0 0 40 35" fill="none" xmlns="http://www.w3.org/2000/svg">
<g clip-path="url(#clip0)" filter="url(#filter0_d)">
<path d="M14.285 5.00701C14.714 4.56301 15.428 4.56301 15.872 5.00701C16.301 5.43601 16.301 6.15001 15.872 6.57801L7.82499 14.625H34.379C34.998 14.626 35.49 15.118 35.49 15.737C35.49 16.356 34.998 16.864 34.379 16.864H7.82499L15.872 24.896C16.301 25.34 16.301 26.055 15.872 26.483C15.428 26.927 14.713 26.927 14.285 26.483L4.33299 16.531C3.88899 16.102 3.88899 15.388 4.33299 14.96L14.285 5.00701Z" fill="white"/>
</g>
<defs>
<filter id="filter0_d" x="0" y="0" width="39.49" height="39.49" filterUnits="userSpaceOnUse" color-interpolation-filters="sRGB">
<feFlood flood-opacity="0" result="BackgroundImageFix"/>
<feColorMatrix in="SourceAlpha" type="matrix" values="0 0 0 0 0 0 0 0 0 0 0 0 0 0 0 0 0 0 127 0"/>
<feOffset dy="4"/>
<feGaussianBlur stdDeviation="2"/>
<feColorMatrix type="matrix" values="0 0 0 0 0 0 0 0 0 0 0 0 0 0 0 0 0 0 0.25 0"/>
<feBlend mode="normal" in2="BackgroundImageFix" result="effect1_dropShadow"/>
<feBlend mode="normal" in="SourceGraphic" in2="effect1_dropShadow" result="shape"/>
</filter>
<clipPath id="clip0">
<rect width="31.49" height="31.49" fill="white" transform="matrix(-1 0 0 1 35.49 0)"/>
</clipPath>
</defs>
</svg>
